# xmcd CD database file
#
# Track frame offsets:
#	150
#	15447
#	30518
#	40781
#	56306
#	75847
#	92475
#	104670
#	118009
#	135112
#	148553
#	159220
#	171996
#	188288
#	205780
#	221625
#	240011
#	255417
#	271209
#	290755
#	312961
#
# Disc length: 4473 seconds
#
# Revision: 0
# Processed by: cddbd v1.5.1PL2 Copyright (c) Steve Scherf et al.
# Submitted via: CDex 1.51
#
DISCID=01117715
DTITLE=Billy Field - Best Of: You Weren't In Love With Me
DYEAR=2005
DGENRE=Jazz
TTITLE0=You Weren't In Love With Me
TTITLE1=True Love
TTITLE2=Baby I'm Easy
TTITLE3=Bad Habits
TTITLE4=You'll Call It Love
TTITLE5=Since I Found Out
TTITLE6=Never Be Blue
TTITLE7=Good Golly Me
TTITLE8=All The Time
TTITLE9=Say Yes
TTITLE10=Try Biology
TTITLE11=Widgiewa
TTITLE12=Thinking Of You
TTITLE13=Beautiful World
TTITLE14=Goodbye To The Open Plains
TTITLE15=London
TTITLE16=No-One's People
TTITLE17=Lucy Lucy
TTITLE18=If I Could Cut Myself Free
TTITLE19=Western Light
TTITLE20=Our Children's Land
EXTD=YEAR: 2005
EXTT0=
EXTT1=
EXTT2=
EXTT3=
EXTT4=
EXTT5=
EXTT6=
EXTT7=
EXTT8=
EXTT9=
EXTT10=
EXTT11=
EXTT12=
EXTT13=
EXTT14=
EXTT15=
EXTT16=
EXTT17=
EXTT18=
EXTT19=
EXTT20=
PLAYORDER=
